<svg version="1.1" id="Layer_1" xmlns:x="ns_extend;" xmlns:i="ns_ai;" xmlns:graph="ns_graphs;" xmlns="http://www.w3.org/2000/svg" xmlns:xlink="http://www.w3.org/1999/xlink" x="0px" y="0px" viewBox="0 0 134.7 75" style="enable-background:new 0 0 134.7 75;" xml:space="preserve">
 <style type="text/css">
  .st0{fill:#00D639;}
 </style>
 <metadata>
  <sfw xmlns="ns_sfw;">
   <slices>
   </slices>
   <sliceSourceBounds bottomLeftOrigin="true" height="75" width="134.7" x="-77.7" y="0.3">
   </sliceSourceBounds>
  </sfw>
 </metadata>
 <g>
  <path class="st0" d="M15.2,0C6.5,0,0,6.5,0,14.9c0,9.2,6.5,12.7,13.8,14.9c6.9,2.2,10.1,4.6,10.1,9.3c0,4.8-3.6,8.2-8.3,8.2
		c-4.7,0-8.8-3.4-8.8-8.6c0-2.9,1.4-3.6,1.4-5.2c0-1.8-1.3-3.2-3.4-3.2c-2.4,0-4.8,3.6-4.8,8.8c0,8.3,7.1,14.4,15.6,14.4
		c8.6,0,15.2-6.5,15.2-14.9c0-9.1-6.5-12.7-13.9-14.9c-6.8-2.1-10.1-4.6-10.1-9.3c0-4.7,3.5-8.1,8.2-8.1c4.9,0,8.8,3.5,8.9,8.2
		c0.1,2.2,1.6,3.5,3.4,3.5c1.8,0,3.5-1.3,3.4-3.6C30.6,6,23.6,0,15.2,0z M49.8,53.4c3.8,0,6.8-1.3,6.8-3.9c0-1.9-1.6-3.2-3.1-3.2
		c-1.1,0-1.9,0.5-3.7,0.5c-5,0-8.9-4.3-8.9-9.3c0-5.4,4-9.7,9-9.7c5.7,0,9.3,4.3,9.3,10.6V50c0,2,1.6,3.4,3.5,3.4
		c1.8,0,3.4-1.4,3.4-3.4V38.3c0-9.7-6.6-16.7-16-16.7c-8.8,0-16,6.8-16,16C34,46.4,41.2,53.4,49.8,53.4z M84.9,75
		c8.6,0,15.2-6.5,15.2-14.9c0-9.2-6.5-12.7-13.9-14.9c-6.8-2.2-10.1-4.6-10.1-9.3s3.6-8.2,8.2-8.2c4.7,0,8.9,3.4,8.9,8.6
		c0,2.9-1.4,3.6-1.4,5.2c0,1.8,1.3,3.2,3.3,3.2c2.5,0,5-3.6,5-8.8c0-8.3-7.2-14.4-15.7-14.4c-8.6,0-15.1,6.5-15.1,14.9
		c0,9.1,6.5,12.7,13.8,14.9c6.9,2.1,10.1,4.6,10.1,9.3c0,4.8-3.6,8.1-8.2,8.1c-5,0-8.8-3.4-8.9-8.2c-0.1-2.2-1.7-3.4-3.4-3.4
		c-1.8,0-3.5,1.2-3.4,3.5C69.4,69.1,76.3,75,84.9,75z M119.5,53.4c4.5,0,8-1.3,10.4-2.8c2.4-1.5,3.3-2.8,3.3-4.3
		c0-1.5-1.1-2.9-3.2-2.9c-2.5,0-4.5,3.7-10.5,3.7c-5.3,0-9.6-4.3-9.6-9.7c0-5.3,4.1-9.7,9.2-9.7c5.5,0,8.5,3.6,8.5,6
		c0,0.7-0.5,1-1.1,1h-6.7c-1.8,0-3.2,1.2-3.2,2.8c0,1.8,1.4,3.1,3.2,3.1h9.2c3.5,0,5.7-1.8,5.7-5c0-7.9-6.7-14.1-15.6-14.1
		c-8.8,0-15.9,7.1-15.9,15.9S110.6,53.4,119.5,53.4z">
  </path>
 </g>
</svg>
